# xmcd
#
# Track frame offsets:
# 150
# 16609
# 23284
# 31498
# 46752
#
# Disc length: 871 seconds
#
# Revision: 0
# Processed by: cddbd v1.4PL0 Copyright (c) Steve Scherf et al.
# Submitted via: Audion 3.0.2 (http://www.panic.com/audion/)
#
DISCID=24036505
DTITLE=Space Ballerinas - Diamonds
DYEAR=1900
DGENRE=
TTITLE0=Strawberry Child
TTITLE1=Eyeball/Pluto
TTITLE2=Nerve Orge's
TTITLE3=Pick Up the Pieces (Jenny and Billy)
TTITLE4=Johnny Spaceship
EXTD=
EXTT0=
EXTT1=
EXTT2=
EXTT3=
EXTT4=
PLAYORDER=
